<?xml version="1.0" encoding="UTF-8" standalone="no"?>
<!DOCTYPE svg PUBLIC "-//W3C//DTD SVG 1.1//EN"
 "http://www.w3.org/Graphics/SVG/1.1/DTD/svg11.dtd">
<!-- Generated by graphviz version 2.47.0 (20210316.0004)
 -->
<!-- Title: dependencies Pages: 1 -->
<svg width="1173pt" height="284pt"
 viewBox="0.00 0.00 1173.00 284.00" xmlns="http://www.w3.org/2000/svg" xmlns:xlink="http://www.w3.org/1999/xlink">
<g id="graph0" class="graph" transform="scale(1 1) rotate(0) translate(4 280)">
<title>dependencies</title>
<polygon fill="white" stroke="transparent" points="-4,4 -4,-280 1169,-280 1169,4 -4,4"/>
<text text-anchor="start" x="561.51" y="-42.4" font-family="Times-12" font-weight="bold" font-size="14.00">Legend</text>
<polygon fill="#ffffb3" stroke="transparent" points="348.5,-10 348.5,-30 368.5,-30 368.5,-10 348.5,-10"/>
<text text-anchor="start" x="372.13" y="-15.4" font-family="Times-12" font-size="14.00"> &#160;Declarations</text>
<polygon fill="#8dd3c7" stroke="transparent" points="461.5,-10 461.5,-30 481.5,-30 481.5,-10 461.5,-10"/>
<text text-anchor="start" x="485.23" y="-15.4" font-family="Times-12" font-size="14.00"> &#160;Module</text>
<polygon fill="#80b1d3" stroke="transparent" points="547.5,-10 547.5,-30 567.5,-30 567.5,-10 547.5,-10"/>
<text text-anchor="start" x="571.28" y="-15.4" font-family="Times-12" font-size="14.00"> &#160;Bootstrap</text>
<polygon fill="#fdb462" stroke="transparent" points="644.5,-10 644.5,-30 664.5,-30 664.5,-10 644.5,-10"/>
<text text-anchor="start" x="668.17" y="-15.4" font-family="Times-12" font-size="14.00"> &#160;Providers</text>
<polygon fill="#fb8072" stroke="transparent" points="740.5,-10 740.5,-30 760.5,-30 760.5,-10 740.5,-10"/>
<text text-anchor="start" x="764.23" y="-15.4" font-family="Times-12" font-size="14.00"> &#160;Exports</text>
<g id="clust1" class="cluster">
<title>cluster_UsersModule</title>
<polygon fill="none" stroke="black" stroke-dasharray="1,5" points="8,-70 8,-268 1157,-268 1157,-70 8,-70"/>
</g>
<g id="clust4" class="cluster">
<title>cluster_UsersModule_exports</title>
<polygon fill="none" stroke="black" points="516,-208 516,-260 626,-260 626,-208 516,-208"/>
</g>
<g id="clust6" class="cluster">
<title>cluster_UsersModule_providers</title>
<polygon fill="none" stroke="black" points="16,-78 16,-130 1149,-130 1149,-78 16,-78"/>
</g>
<!-- UsersService  -->
<g id="node1" class="node">
<title>UsersService </title>
<polygon fill="#fb8072" stroke="black" points="617.85,-252 524.15,-252 524.15,-216 617.85,-216 617.85,-252"/>
<text text-anchor="middle" x="571" y="-229.8" font-family="Times,serif" font-size="14.00">UsersService </text>
</g>
<!-- UsersModule -->
<g id="node2" class="node">
<title>UsersModule</title>
<polygon fill="#8dd3c7" stroke="black" points="616.92,-187 613.92,-191 592.92,-191 589.92,-187 525.08,-187 525.08,-151 616.92,-151 616.92,-187"/>
<text text-anchor="middle" x="571" y="-164.8" font-family="Times,serif" font-size="14.00">UsersModule</text>
</g>
<!-- UsersModule&#45;&gt;UsersService  -->
<g id="edge1" class="edge">
<title>UsersModule&#45;&gt;UsersService </title>
<path fill="none" stroke="black" stroke-dasharray="5,2" d="M571,-187.11C571,-187.11 571,-205.99 571,-205.99"/>
<polygon fill="black" stroke="black" points="567.5,-205.99 571,-215.99 574.5,-205.99 567.5,-205.99"/>
</g>
<!-- CreateGoogleUserProvider -->
<g id="node3" class="node">
<title>CreateGoogleUserProvider</title>
<ellipse fill="#fdb462" stroke="black" cx="1025" cy="-104" rx="116.29" ry="18"/>
<text text-anchor="middle" x="1025" y="-99.8" font-family="Times,serif" font-size="14.00">CreateGoogleUserProvider</text>
</g>
<!-- CreateGoogleUserProvider&#45;&gt;UsersModule -->
<g id="edge2" class="edge">
<title>CreateGoogleUserProvider&#45;&gt;UsersModule</title>
<path fill="none" stroke="black" d="M1025,-122.28C1025,-143.32 1025,-175 1025,-175 1025,-175 627.03,-175 627.03,-175"/>
<polygon fill="black" stroke="black" points="627.03,-171.5 617.03,-175 627.03,-178.5 627.03,-171.5"/>
</g>
<!-- CreateUserProvider -->
<g id="node4" class="node">
<title>CreateUserProvider</title>
<ellipse fill="#fdb462" stroke="black" cx="803" cy="-104" rx="87.94" ry="18"/>
<text text-anchor="middle" x="803" y="-99.8" font-family="Times,serif" font-size="14.00">CreateUserProvider</text>
</g>
<!-- CreateUserProvider&#45;&gt;UsersModule -->
<g id="edge3" class="edge">
<title>CreateUserProvider&#45;&gt;UsersModule</title>
<path fill="none" stroke="black" d="M803,-122.02C803,-139.37 803,-163 803,-163 803,-163 626.84,-163 626.84,-163"/>
<polygon fill="black" stroke="black" points="626.84,-159.5 616.84,-163 626.84,-166.5 626.84,-159.5"/>
</g>
<!-- FindOneByGoogleIdProvider -->
<g id="node5" class="node">
<title>FindOneByGoogleIdProvider</title>
<ellipse fill="#fdb462" stroke="black" cx="571" cy="-104" rx="125.65" ry="18"/>
<text text-anchor="middle" x="571" y="-99.8" font-family="Times,serif" font-size="14.00">FindOneByGoogleIdProvider</text>
</g>
<!-- FindOneByGoogleIdProvider&#45;&gt;UsersModule -->
<g id="edge4" class="edge">
<title>FindOneByGoogleIdProvider&#45;&gt;UsersModule</title>
<path fill="none" stroke="black" d="M571,-122.11C571,-122.11 571,-140.99 571,-140.99"/>
<polygon fill="black" stroke="black" points="567.5,-140.99 571,-150.99 574.5,-140.99 567.5,-140.99"/>
</g>
<!-- FindOneUserByEmailProvider -->
<g id="node6" class="node">
<title>FindOneUserByEmailProvider</title>
<ellipse fill="#fdb462" stroke="black" cx="297" cy="-104" rx="130.8" ry="18"/>
<text text-anchor="middle" x="297" y="-99.8" font-family="Times,serif" font-size="14.00">FindOneUserByEmailProvider</text>
</g>
<!-- FindOneUserByEmailProvider&#45;&gt;UsersModule -->
<g id="edge5" class="edge">
<title>FindOneUserByEmailProvider&#45;&gt;UsersModule</title>
<path fill="none" stroke="black" d="M297,-122.02C297,-139.37 297,-163 297,-163 297,-163 515.14,-163 515.14,-163"/>
<polygon fill="black" stroke="black" points="515.14,-166.5 525.14,-163 515.14,-159.5 515.14,-166.5"/>
</g>
<!-- UsersService -->
<g id="node7" class="node">
<title>UsersService</title>
<ellipse fill="#fdb462" stroke="black" cx="86" cy="-104" rx="61.95" ry="18"/>
<text text-anchor="middle" x="86" y="-99.8" font-family="Times,serif" font-size="14.00">UsersService</text>
</g>
<!-- UsersService&#45;&gt;UsersModule -->
<g id="edge6" class="edge">
<title>UsersService&#45;&gt;UsersModule</title>
<path fill="none" stroke="black" d="M86,-122.28C86,-143.32 86,-175 86,-175 86,-175 514.94,-175 514.94,-175"/>
<polygon fill="black" stroke="black" points="514.94,-178.5 524.94,-175 514.94,-171.5 514.94,-178.5"/>
</g>
</g>
</svg>
