<?xml version="1.0" encoding="UTF-8" standalone="no"?>
<!DOCTYPE svg PUBLIC "-//W3C//DTD SVG 1.1//EN"
 "http://www.w3.org/Graphics/SVG/1.1/DTD/svg11.dtd">
<!-- Generated by graphviz version 2.47.0 (20210316.0004)
 -->
<!-- Title: dependencies Pages: 1 -->
<svg width="725pt" height="284pt"
 viewBox="0.00 0.00 725.00 284.00" xmlns="http://www.w3.org/2000/svg" xmlns:xlink="http://www.w3.org/1999/xlink">
<g id="graph0" class="graph" transform="scale(1 1) rotate(0) translate(4 280)">
<title>dependencies</title>
<polygon fill="white" stroke="transparent" points="-4,4 -4,-280 721,-280 721,4 -4,4"/>
<text text-anchor="start" x="337.51" y="-42.4" font-family="Times-12" font-weight="bold" font-size="14.00">Legend</text>
<polygon fill="#ffffb3" stroke="transparent" points="124.5,-10 124.5,-30 144.5,-30 144.5,-10 124.5,-10"/>
<text text-anchor="start" x="148.13" y="-15.4" font-family="Times-12" font-size="14.00"> &#160;Declarations</text>
<polygon fill="#8dd3c7" stroke="transparent" points="237.5,-10 237.5,-30 257.5,-30 257.5,-10 237.5,-10"/>
<text text-anchor="start" x="261.23" y="-15.4" font-family="Times-12" font-size="14.00"> &#160;Module</text>
<polygon fill="#80b1d3" stroke="transparent" points="323.5,-10 323.5,-30 343.5,-30 343.5,-10 323.5,-10"/>
<text text-anchor="start" x="347.28" y="-15.4" font-family="Times-12" font-size="14.00"> &#160;Bootstrap</text>
<polygon fill="#fdb462" stroke="transparent" points="420.5,-10 420.5,-30 440.5,-30 440.5,-10 420.5,-10"/>
<text text-anchor="start" x="444.17" y="-15.4" font-family="Times-12" font-size="14.00"> &#160;Providers</text>
<polygon fill="#fb8072" stroke="transparent" points="516.5,-10 516.5,-30 536.5,-30 536.5,-10 516.5,-10"/>
<text text-anchor="start" x="540.23" y="-15.4" font-family="Times-12" font-size="14.00"> &#160;Exports</text>
<g id="clust1" class="cluster">
<title>cluster_PostsModule</title>
<polygon fill="none" stroke="black" stroke-dasharray="1,5" points="8,-70 8,-268 709,-268 709,-70 8,-70"/>
</g>
<g id="clust4" class="cluster">
<title>cluster_PostsModule_exports</title>
<polygon fill="none" stroke="black" points="244,-208 244,-260 352,-260 352,-208 244,-208"/>
</g>
<g id="clust6" class="cluster">
<title>cluster_PostsModule_providers</title>
<polygon fill="none" stroke="black" points="374,-78 374,-130 701,-130 701,-78 374,-78"/>
</g>
<g id="clust3" class="cluster">
<title>cluster_PostsModule_imports</title>
<polygon fill="none" stroke="black" points="16,-78 16,-130 366,-130 366,-78 16,-78"/>
</g>
<!-- PaginationModule -->
<g id="node1" class="node">
<title>PaginationModule</title>
<polygon fill="#8dd3c7" stroke="black" points="357.93,-122 354.93,-126 333.93,-126 330.93,-122 238.07,-122 238.07,-86 357.93,-86 357.93,-122"/>
<text text-anchor="middle" x="298" y="-99.8" font-family="Times,serif" font-size="14.00">PaginationModule</text>
</g>
<!-- PostsModule -->
<g id="node4" class="node">
<title>PostsModule</title>
<polygon fill="#8dd3c7" stroke="black" points="342.61,-187 339.61,-191 318.61,-191 315.61,-187 253.39,-187 253.39,-151 342.61,-151 342.61,-187"/>
<text text-anchor="middle" x="298" y="-164.8" font-family="Times,serif" font-size="14.00">PostsModule</text>
</g>
<!-- PaginationModule&#45;&gt;PostsModule -->
<g id="edge1" class="edge">
<title>PaginationModule&#45;&gt;PostsModule</title>
<path fill="none" stroke="black" d="M298,-122.11C298,-122.11 298,-140.99 298,-140.99"/>
<polygon fill="black" stroke="black" points="294.5,-140.99 298,-150.99 301.5,-140.99 294.5,-140.99"/>
</g>
<!-- TagsModule -->
<g id="node2" class="node">
<title>TagsModule</title>
<polygon fill="#8dd3c7" stroke="black" points="220.26,-122 217.26,-126 196.26,-126 193.26,-122 133.74,-122 133.74,-86 220.26,-86 220.26,-122"/>
<text text-anchor="middle" x="177" y="-99.8" font-family="Times,serif" font-size="14.00">TagsModule</text>
</g>
<!-- TagsModule&#45;&gt;PostsModule -->
<g id="edge2" class="edge">
<title>TagsModule&#45;&gt;PostsModule</title>
<path fill="none" stroke="black" d="M177,-122.02C177,-139.37 177,-163 177,-163 177,-163 243.29,-163 243.29,-163"/>
<polygon fill="black" stroke="black" points="243.29,-166.5 253.29,-163 243.29,-159.5 243.29,-166.5"/>
</g>
<!-- UsersModule -->
<g id="node3" class="node">
<title>UsersModule</title>
<polygon fill="#8dd3c7" stroke="black" points="115.92,-122 112.92,-126 91.92,-126 88.92,-122 24.08,-122 24.08,-86 115.92,-86 115.92,-122"/>
<text text-anchor="middle" x="70" y="-99.8" font-family="Times,serif" font-size="14.00">UsersModule</text>
</g>
<!-- UsersModule&#45;&gt;PostsModule -->
<g id="edge3" class="edge">
<title>UsersModule&#45;&gt;PostsModule</title>
<path fill="none" stroke="black" d="M70,-122.28C70,-143.32 70,-175 70,-175 70,-175 243.23,-175 243.23,-175"/>
<polygon fill="black" stroke="black" points="243.23,-178.5 253.23,-175 243.23,-171.5 243.23,-178.5"/>
</g>
<!-- PostsService  -->
<g id="node5" class="node">
<title>PostsService </title>
<polygon fill="#fb8072" stroke="black" points="343.54,-252 252.46,-252 252.46,-216 343.54,-216 343.54,-252"/>
<text text-anchor="middle" x="298" y="-229.8" font-family="Times,serif" font-size="14.00">PostsService </text>
</g>
<!-- PostsModule&#45;&gt;PostsService  -->
<g id="edge4" class="edge">
<title>PostsModule&#45;&gt;PostsService </title>
<path fill="none" stroke="black" stroke-dasharray="5,2" d="M298,-187.11C298,-187.11 298,-205.99 298,-205.99"/>
<polygon fill="black" stroke="black" points="294.5,-205.99 298,-215.99 301.5,-205.99 294.5,-205.99"/>
</g>
<!-- CreatePostProvider -->
<g id="node6" class="node">
<title>CreatePostProvider</title>
<ellipse fill="#fdb462" stroke="black" cx="607" cy="-104" rx="86.25" ry="18"/>
<text text-anchor="middle" x="607" y="-99.8" font-family="Times,serif" font-size="14.00">CreatePostProvider</text>
</g>
<!-- CreatePostProvider&#45;&gt;PostsModule -->
<g id="edge5" class="edge">
<title>CreatePostProvider&#45;&gt;PostsModule</title>
<path fill="none" stroke="black" d="M607,-122.28C607,-143.32 607,-175 607,-175 607,-175 352.6,-175 352.6,-175"/>
<polygon fill="black" stroke="black" points="352.6,-171.5 342.6,-175 352.6,-178.5 352.6,-171.5"/>
</g>
<!-- PostsService -->
<g id="node7" class="node">
<title>PostsService</title>
<ellipse fill="#fdb462" stroke="black" cx="442" cy="-104" rx="60.27" ry="18"/>
<text text-anchor="middle" x="442" y="-99.8" font-family="Times,serif" font-size="14.00">PostsService</text>
</g>
<!-- PostsService&#45;&gt;PostsModule -->
<g id="edge6" class="edge">
<title>PostsService&#45;&gt;PostsModule</title>
<path fill="none" stroke="black" d="M442,-122.02C442,-139.37 442,-163 442,-163 442,-163 352.77,-163 352.77,-163"/>
<polygon fill="black" stroke="black" points="352.77,-159.5 342.77,-163 352.77,-166.5 352.77,-159.5"/>
</g>
</g>
</svg>
