<?xml version="1.0" encoding="UTF-8" standalone="no"?>
<!DOCTYPE svg PUBLIC "-//W3C//DTD SVG 1.1//EN"
 "http://www.w3.org/Graphics/SVG/1.1/DTD/svg11.dtd">
<!-- Generated by graphviz version 2.47.0 (20210316.0004)
 -->
<!-- Title: dependencies Pages: 1 -->
<svg width="969pt" height="211pt"
 viewBox="0.00 0.00 969.00 211.00" xmlns="http://www.w3.org/2000/svg" xmlns:xlink="http://www.w3.org/1999/xlink">
<g id="graph0" class="graph" transform="scale(1 1) rotate(0) translate(4 207)">
<title>dependencies</title>
<polygon fill="white" stroke="transparent" points="-4,4 -4,-207 965,-207 965,4 -4,4"/>
<text text-anchor="start" x="459.51" y="-42.4" font-family="Times-12" font-weight="bold" font-size="14.00">Legend</text>
<polygon fill="#ffffb3" stroke="transparent" points="246.5,-10 246.5,-30 266.5,-30 266.5,-10 246.5,-10"/>
<text text-anchor="start" x="270.13" y="-15.4" font-family="Times-12" font-size="14.00"> &#160;Declarations</text>
<polygon fill="#8dd3c7" stroke="transparent" points="359.5,-10 359.5,-30 379.5,-30 379.5,-10 359.5,-10"/>
<text text-anchor="start" x="383.23" y="-15.4" font-family="Times-12" font-size="14.00"> &#160;Module</text>
<polygon fill="#80b1d3" stroke="transparent" points="445.5,-10 445.5,-30 465.5,-30 465.5,-10 445.5,-10"/>
<text text-anchor="start" x="469.28" y="-15.4" font-family="Times-12" font-size="14.00"> &#160;Bootstrap</text>
<polygon fill="#fdb462" stroke="transparent" points="542.5,-10 542.5,-30 562.5,-30 562.5,-10 542.5,-10"/>
<text text-anchor="start" x="566.17" y="-15.4" font-family="Times-12" font-size="14.00"> &#160;Providers</text>
<polygon fill="#fb8072" stroke="transparent" points="638.5,-10 638.5,-30 658.5,-30 658.5,-10 638.5,-10"/>
<text text-anchor="start" x="662.23" y="-15.4" font-family="Times-12" font-size="14.00"> &#160;Exports</text>
<g id="clust1" class="cluster">
<title>cluster_AppModule</title>
<polygon fill="none" stroke="black" stroke-dasharray="1,5" points="8,-70 8,-195 953,-195 953,-70 8,-70"/>
</g>
<g id="clust6" class="cluster">
<title>cluster_AppModule_providers</title>
<polygon fill="none" stroke="black" points="815,-78 815,-130 945,-130 945,-78 815,-78"/>
</g>
<g id="clust3" class="cluster">
<title>cluster_AppModule_imports</title>
<polygon fill="none" stroke="black" points="16,-78 16,-130 807,-130 807,-78 16,-78"/>
</g>
<!-- AuthModule -->
<g id="node1" class="node">
<title>AuthModule</title>
<polygon fill="#8dd3c7" stroke="black" points="798.55,-122 795.55,-126 774.55,-126 771.55,-122 711.45,-122 711.45,-86 798.55,-86 798.55,-122"/>
<text text-anchor="middle" x="755" y="-99.8" font-family="Times,serif" font-size="14.00">AuthModule</text>
</g>
<!-- AppModule -->
<g id="node8" class="node">
<title>AppModule</title>
<polygon fill="#8dd3c7" stroke="black" points="509.66,-187 506.66,-191 485.66,-191 482.66,-187 426.34,-187 426.34,-151 509.66,-151 509.66,-187"/>
<text text-anchor="middle" x="468" y="-164.8" font-family="Times,serif" font-size="14.00">AppModule</text>
</g>
<!-- AuthModule&#45;&gt;AppModule -->
<g id="edge1" class="edge">
<title>AuthModule&#45;&gt;AppModule</title>
<path fill="none" stroke="black" d="M755,-122.11C755,-141.34 755,-169 755,-169 755,-169 519.73,-169 519.73,-169"/>
<polygon fill="black" stroke="black" points="519.73,-165.5 509.73,-169 519.73,-172.5 519.73,-165.5"/>
</g>
<!-- MailModule -->
<g id="node2" class="node">
<title>MailModule</title>
<polygon fill="#8dd3c7" stroke="black" points="692.99,-122 689.99,-126 668.99,-126 665.99,-122 607.01,-122 607.01,-86 692.99,-86 692.99,-122"/>
<text text-anchor="middle" x="650" y="-99.8" font-family="Times,serif" font-size="14.00">MailModule</text>
</g>
<!-- MailModule&#45;&gt;AppModule -->
<g id="edge2" class="edge">
<title>MailModule&#45;&gt;AppModule</title>
<path fill="none" stroke="black" d="M650,-122.03C650,-138.4 650,-160 650,-160 650,-160 519.75,-160 519.75,-160"/>
<polygon fill="black" stroke="black" points="519.75,-156.5 509.75,-160 519.75,-163.5 519.75,-156.5"/>
</g>
<!-- PaginationModule -->
<g id="node3" class="node">
<title>PaginationModule</title>
<polygon fill="#8dd3c7" stroke="black" points="588.93,-122 585.93,-126 564.93,-126 561.93,-122 469.07,-122 469.07,-86 588.93,-86 588.93,-122"/>
<text text-anchor="middle" x="529" y="-99.8" font-family="Times,serif" font-size="14.00">PaginationModule</text>
</g>
<!-- PaginationModule&#45;&gt;AppModule -->
<g id="edge3" class="edge">
<title>PaginationModule&#45;&gt;AppModule</title>
<path fill="none" stroke="black" d="M489.56,-122.11C489.56,-122.11 489.56,-140.99 489.56,-140.99"/>
<polygon fill="black" stroke="black" points="486.06,-140.99 489.56,-150.99 493.06,-140.99 486.06,-140.99"/>
</g>
<!-- PostsModule -->
<g id="node4" class="node">
<title>PostsModule</title>
<polygon fill="#8dd3c7" stroke="black" points="451.61,-122 448.61,-126 427.61,-126 424.61,-122 362.39,-122 362.39,-86 451.61,-86 451.61,-122"/>
<text text-anchor="middle" x="407" y="-99.8" font-family="Times,serif" font-size="14.00">PostsModule</text>
</g>
<!-- PostsModule&#45;&gt;AppModule -->
<g id="edge4" class="edge">
<title>PostsModule&#45;&gt;AppModule</title>
<path fill="none" stroke="black" d="M438.86,-122.11C438.86,-122.11 438.86,-140.99 438.86,-140.99"/>
<polygon fill="black" stroke="black" points="435.36,-140.99 438.86,-150.99 442.36,-140.99 435.36,-140.99"/>
</g>
<!-- TagsModule -->
<g id="node5" class="node">
<title>TagsModule</title>
<polygon fill="#8dd3c7" stroke="black" points="344.26,-122 341.26,-126 320.26,-126 317.26,-122 257.74,-122 257.74,-86 344.26,-86 344.26,-122"/>
<text text-anchor="middle" x="301" y="-99.8" font-family="Times,serif" font-size="14.00">TagsModule</text>
</g>
<!-- TagsModule&#45;&gt;AppModule -->
<g id="edge5" class="edge">
<title>TagsModule&#45;&gt;AppModule</title>
<path fill="none" stroke="black" d="M301,-122.03C301,-138.4 301,-160 301,-160 301,-160 416.29,-160 416.29,-160"/>
<polygon fill="black" stroke="black" points="416.29,-163.5 426.29,-160 416.29,-156.5 416.29,-163.5"/>
</g>
<!-- UploadsModule -->
<g id="node6" class="node">
<title>UploadsModule</title>
<polygon fill="#8dd3c7" stroke="black" points="240.21,-122 237.21,-126 216.21,-126 213.21,-122 133.79,-122 133.79,-86 240.21,-86 240.21,-122"/>
<text text-anchor="middle" x="187" y="-99.8" font-family="Times,serif" font-size="14.00">UploadsModule</text>
</g>
<!-- UploadsModule&#45;&gt;AppModule -->
<g id="edge6" class="edge">
<title>UploadsModule&#45;&gt;AppModule</title>
<path fill="none" stroke="black" d="M187,-122.11C187,-141.34 187,-169 187,-169 187,-169 416.23,-169 416.23,-169"/>
<polygon fill="black" stroke="black" points="416.23,-172.5 426.23,-169 416.23,-165.5 416.23,-172.5"/>
</g>
<!-- UsersModule -->
<g id="node7" class="node">
<title>UsersModule</title>
<polygon fill="#8dd3c7" stroke="black" points="115.92,-122 112.92,-126 91.92,-126 88.92,-122 24.08,-122 24.08,-86 115.92,-86 115.92,-122"/>
<text text-anchor="middle" x="70" y="-99.8" font-family="Times,serif" font-size="14.00">UsersModule</text>
</g>
<!-- UsersModule&#45;&gt;AppModule -->
<g id="edge7" class="edge">
<title>UsersModule&#45;&gt;AppModule</title>
<path fill="none" stroke="black" d="M70,-122.29C70,-144.21 70,-178 70,-178 70,-178 416.16,-178 416.16,-178"/>
<polygon fill="black" stroke="black" points="416.16,-181.5 426.16,-178 416.16,-174.5 416.16,-181.5"/>
</g>
<!-- AppService -->
<g id="node9" class="node">
<title>AppService</title>
<ellipse fill="#fdb462" stroke="black" cx="880" cy="-104" rx="56.74" ry="18"/>
<text text-anchor="middle" x="880" y="-99.8" font-family="Times,serif" font-size="14.00">AppService</text>
</g>
<!-- AppService&#45;&gt;AppModule -->
<g id="edge8" class="edge">
<title>AppService&#45;&gt;AppModule</title>
<path fill="none" stroke="black" d="M880,-122.29C880,-144.21 880,-178 880,-178 880,-178 519.77,-178 519.77,-178"/>
<polygon fill="black" stroke="black" points="519.77,-174.5 509.77,-178 519.77,-181.5 519.77,-174.5"/>
</g>
</g>
</svg>
