<?xml version="1.0" encoding="UTF-8" standalone="no"?>
<!DOCTYPE svg PUBLIC "-//W3C//DTD SVG 1.1//EN"
 "http://www.w3.org/Graphics/SVG/1.1/DTD/svg11.dtd">
<!-- Generated by graphviz version 2.47.0 (20210316.0004)
 -->
<!-- Title: dependencies Pages: 1 -->
<svg width="2984pt" height="363pt"
 viewBox="0.00 0.00 2984.00 363.00" xmlns="http://www.w3.org/2000/svg" xmlns:xlink="http://www.w3.org/1999/xlink">
<g id="graph0" class="graph" transform="scale(1 1) rotate(0) translate(4 359)">
<title>dependencies</title>
<polygon fill="white" stroke="transparent" points="-4,4 -4,-359 2980,-359 2980,4 -4,4"/>
<text text-anchor="start" x="1467.01" y="-42.4" font-family="Times-12" font-weight="bold" font-size="14.00">Legend</text>
<polygon fill="#ffffb3" stroke="transparent" points="1254,-10 1254,-30 1274,-30 1274,-10 1254,-10"/>
<text text-anchor="start" x="1277.63" y="-15.4" font-family="Times-12" font-size="14.00"> &#160;Declarations</text>
<polygon fill="#8dd3c7" stroke="transparent" points="1367,-10 1367,-30 1387,-30 1387,-10 1367,-10"/>
<text text-anchor="start" x="1390.73" y="-15.4" font-family="Times-12" font-size="14.00"> &#160;Module</text>
<polygon fill="#80b1d3" stroke="transparent" points="1453,-10 1453,-30 1473,-30 1473,-10 1453,-10"/>
<text text-anchor="start" x="1476.78" y="-15.4" font-family="Times-12" font-size="14.00"> &#160;Bootstrap</text>
<polygon fill="#fdb462" stroke="transparent" points="1550,-10 1550,-30 1570,-30 1570,-10 1550,-10"/>
<text text-anchor="start" x="1573.67" y="-15.4" font-family="Times-12" font-size="14.00"> &#160;Providers</text>
<polygon fill="#fb8072" stroke="transparent" points="1646,-10 1646,-30 1666,-30 1666,-10 1646,-10"/>
<text text-anchor="start" x="1669.73" y="-15.4" font-family="Times-12" font-size="14.00"> &#160;Exports</text>
<g id="clust1" class="cluster">
<title>cluster_AppModule</title>
<polygon fill="none" stroke="black" stroke-dasharray="1,5" points="1070,-146 1070,-347 1907,-347 1907,-146 1070,-146"/>
</g>
<g id="clust3" class="cluster">
<title>cluster_AppModule_imports</title>
<polygon fill="none" stroke="black" points="1216,-154 1216,-282 1899,-282 1899,-154 1216,-154"/>
</g>
<g id="clust6" class="cluster">
<title>cluster_AppModule_providers</title>
<polygon fill="none" stroke="black" points="1078,-230 1078,-282 1208,-282 1208,-230 1078,-230"/>
</g>
<g id="clust7" class="cluster">
<title>cluster_AuthModule</title>
<polygon fill="none" stroke="black" stroke-dasharray="1,5" points="8,-70 8,-138 1289,-138 1289,-70 8,-70"/>
</g>
<g id="clust10" class="cluster">
<title>cluster_AuthModule_exports</title>
<polygon fill="none" stroke="black" points="1043,-78 1043,-130 1281,-130 1281,-78 1043,-78"/>
</g>
<g id="clust12" class="cluster">
<title>cluster_AuthModule_providers</title>
<polygon fill="none" stroke="black" points="16,-78 16,-130 1035,-130 1035,-78 16,-78"/>
</g>
<g id="clust13" class="cluster">
<title>cluster_MailModule</title>
<polygon fill="none" stroke="black" stroke-dasharray="1,5" points="1915,-222 1915,-290 2175,-290 2175,-222 1915,-222"/>
</g>
<g id="clust16" class="cluster">
<title>cluster_MailModule_exports</title>
<polygon fill="none" stroke="black" points="2063,-230 2063,-282 2167,-282 2167,-230 2063,-230"/>
</g>
<g id="clust18" class="cluster">
<title>cluster_MailModule_providers</title>
<polygon fill="none" stroke="black" points="1923,-230 1923,-282 2055,-282 2055,-230 1923,-230"/>
</g>
<g id="clust19" class="cluster">
<title>cluster_PaginationModule</title>
<polygon fill="none" stroke="black" stroke-dasharray="1,5" points="2183,-222 2183,-290 2539,-290 2539,-222 2183,-222"/>
</g>
<g id="clust22" class="cluster">
<title>cluster_PaginationModule_exports</title>
<polygon fill="none" stroke="black" points="2387,-230 2387,-282 2531,-282 2531,-230 2387,-230"/>
</g>
<g id="clust24" class="cluster">
<title>cluster_PaginationModule_providers</title>
<polygon fill="none" stroke="black" points="2191,-230 2191,-282 2379,-282 2379,-230 2191,-230"/>
</g>
<g id="clust25" class="cluster">
<title>cluster_PostsModule</title>
<polygon fill="none" stroke="black" stroke-dasharray="1,5" points="603,-146 603,-214 1062,-214 1062,-146 603,-146"/>
</g>
<g id="clust28" class="cluster">
<title>cluster_PostsModule_exports</title>
<polygon fill="none" stroke="black" points="946,-154 946,-206 1054,-206 1054,-154 946,-154"/>
</g>
<g id="clust30" class="cluster">
<title>cluster_PostsModule_providers</title>
<polygon fill="none" stroke="black" points="611,-154 611,-206 938,-206 938,-154 611,-154"/>
</g>
<g id="clust31" class="cluster">
<title>cluster_TagsModule</title>
<polygon fill="none" stroke="black" stroke-dasharray="1,5" points="2547,-222 2547,-290 2809,-290 2809,-222 2547,-222"/>
</g>
<g id="clust34" class="cluster">
<title>cluster_TagsModule_exports</title>
<polygon fill="none" stroke="black" points="2697,-230 2697,-282 2801,-282 2801,-230 2697,-230"/>
</g>
<g id="clust36" class="cluster">
<title>cluster_TagsModule_providers</title>
<polygon fill="none" stroke="black" points="2555,-230 2555,-282 2689,-282 2689,-230 2555,-230"/>
</g>
<g id="clust37" class="cluster">
<title>cluster_UploadsModule</title>
<polygon fill="none" stroke="black" stroke-dasharray="1,5" points="2572,-70 2572,-138 2968,-138 2968,-70 2572,-70"/>
</g>
<g id="clust42" class="cluster">
<title>cluster_UploadsModule_providers</title>
<polygon fill="none" stroke="black" points="2580,-78 2580,-130 2960,-130 2960,-78 2580,-78"/>
</g>
<g id="clust43" class="cluster">
<title>cluster_UsersModule</title>
<polygon fill="none" stroke="black" stroke-dasharray="1,5" points="1297,-70 1297,-138 2564,-138 2564,-70 1297,-70"/>
</g>
<g id="clust46" class="cluster">
<title>cluster_UsersModule_exports</title>
<polygon fill="none" stroke="black" points="2446,-78 2446,-130 2556,-130 2556,-78 2446,-78"/>
</g>
<g id="clust48" class="cluster">
<title>cluster_UsersModule_providers</title>
<polygon fill="none" stroke="black" points="1305,-78 1305,-130 2438,-130 2438,-78 1305,-78"/>
</g>
<!-- AuthModule -->
<g id="node1" class="node">
<title>AuthModule</title>
<polygon fill="#8dd3c7" stroke="black" points="1311.55,-198 1308.55,-202 1287.55,-202 1284.55,-198 1224.45,-198 1224.45,-162 1311.55,-162 1311.55,-198"/>
<text text-anchor="middle" x="1268" y="-175.8" font-family="Times,serif" font-size="14.00">AuthModule</text>
</g>
<!-- AppModule -->
<g id="node8" class="node">
<title>AppModule</title>
<polygon fill="#8dd3c7" stroke="black" points="1520.66,-339 1517.66,-343 1496.66,-343 1493.66,-339 1437.34,-339 1437.34,-303 1520.66,-303 1520.66,-339"/>
<text text-anchor="middle" x="1479" y="-316.8" font-family="Times,serif" font-size="14.00">AppModule</text>
</g>
<!-- AuthModule&#45;&gt;AppModule -->
<g id="edge1" class="edge">
<title>AuthModule&#45;&gt;AppModule</title>
<path fill="none" stroke="black" d="M1268,-198.14C1268,-236.23 1268,-321 1268,-321 1268,-321 1427.31,-321 1427.31,-321"/>
<polygon fill="black" stroke="black" points="1427.31,-324.5 1437.31,-321 1427.31,-317.5 1427.31,-324.5"/>
</g>
<!-- AuthService  -->
<g id="node10" class="node">
<title>AuthService </title>
<polygon fill="#fb8072" stroke="black" points="1140.98,-122 1051.02,-122 1051.02,-86 1140.98,-86 1140.98,-122"/>
<text text-anchor="middle" x="1096" y="-99.8" font-family="Times,serif" font-size="14.00">AuthService </text>
</g>
<!-- AuthModule&#45;&gt;AuthService  -->
<g id="edge9" class="edge">
<title>AuthModule&#45;&gt;AuthService </title>
<path fill="none" stroke="black" stroke-dasharray="5,2" d="M1224.16,-174C1178.5,-174 1113.56,-174 1113.56,-174 1113.56,-174 1113.56,-132.03 1113.56,-132.03"/>
<polygon fill="black" stroke="black" points="1117.06,-132.03 1113.56,-122.03 1110.06,-132.03 1117.06,-132.03"/>
</g>
<!-- HashingProvider  -->
<g id="node11" class="node">
<title>HashingProvider </title>
<polygon fill="#fb8072" stroke="black" points="1273.37,-122 1158.63,-122 1158.63,-86 1273.37,-86 1273.37,-122"/>
<text text-anchor="middle" x="1216" y="-99.8" font-family="Times,serif" font-size="14.00">HashingProvider </text>
</g>
<!-- AuthModule&#45;&gt;HashingProvider  -->
<g id="edge10" class="edge">
<title>AuthModule&#45;&gt;HashingProvider </title>
<path fill="none" stroke="black" stroke-dasharray="5,2" d="M1266.19,-161.99C1266.19,-161.99 1266.19,-132.15 1266.19,-132.15"/>
<polygon fill="black" stroke="black" points="1269.69,-132.15 1266.19,-122.15 1262.69,-132.15 1269.69,-132.15"/>
</g>
<!-- MailModule -->
<g id="node2" class="node">
<title>MailModule</title>
<polygon fill="#8dd3c7" stroke="black" points="1648.99,-198 1645.99,-202 1624.99,-202 1621.99,-198 1563.01,-198 1563.01,-162 1648.99,-162 1648.99,-198"/>
<text text-anchor="middle" x="1606" y="-175.8" font-family="Times,serif" font-size="14.00">MailModule</text>
</g>
<!-- MailModule&#45;&gt;AppModule -->
<g id="edge2" class="edge">
<title>MailModule&#45;&gt;AppModule</title>
<path fill="none" stroke="black" d="M1606,-198.08C1606,-234.23 1606,-312 1606,-312 1606,-312 1530.94,-312 1530.94,-312"/>
<polygon fill="black" stroke="black" points="1530.94,-308.5 1520.94,-312 1530.94,-315.5 1530.94,-308.5"/>
</g>
<!-- MailService  -->
<g id="node17" class="node">
<title>MailService </title>
<polygon fill="#fb8072" stroke="black" points="2158.92,-274 2071.08,-274 2071.08,-238 2158.92,-238 2158.92,-274"/>
<text text-anchor="middle" x="2115" y="-251.8" font-family="Times,serif" font-size="14.00">MailService </text>
</g>
<!-- MailModule&#45;&gt;MailService  -->
<g id="edge16" class="edge">
<title>MailModule&#45;&gt;MailService </title>
<path fill="none" stroke="black" stroke-dasharray="5,2" d="M1584.5,-198.11C1584.5,-207.9 1584.5,-218 1584.5,-218 1584.5,-218 2115,-218 2115,-218 2115,-218 2115,-227.89 2115,-227.89"/>
<polygon fill="black" stroke="black" points="2111.5,-227.89 2115,-237.89 2118.5,-227.89 2111.5,-227.89"/>
</g>
<!-- PaginationModule -->
<g id="node3" class="node">
<title>PaginationModule</title>
<polygon fill="#8dd3c7" stroke="black" points="1786.93,-198 1783.93,-202 1762.93,-202 1759.93,-198 1667.07,-198 1667.07,-162 1786.93,-162 1786.93,-198"/>
<text text-anchor="middle" x="1727" y="-175.8" font-family="Times,serif" font-size="14.00">PaginationModule</text>
</g>
<!-- PostsModule -->
<g id="node4" class="node">
<title>PostsModule</title>
<polygon fill="#8dd3c7" stroke="black" points="1419.61,-274 1416.61,-278 1395.61,-278 1392.61,-274 1330.39,-274 1330.39,-238 1419.61,-238 1419.61,-274"/>
<text text-anchor="middle" x="1375" y="-251.8" font-family="Times,serif" font-size="14.00">PostsModule</text>
</g>
<!-- PaginationModule&#45;&gt;PostsModule -->
<g id="edge20" class="edge">
<title>PaginationModule&#45;&gt;PostsModule</title>
<path fill="none" stroke="black" d="M1738.94,-198.04C1738.94,-219.66 1738.94,-253 1738.94,-253 1738.94,-253 1429.63,-253 1429.63,-253"/>
<polygon fill="black" stroke="black" points="1429.63,-249.5 1419.63,-253 1429.63,-256.5 1429.63,-249.5"/>
</g>
<!-- PaginationModule&#45;&gt;AppModule -->
<g id="edge3" class="edge">
<title>PaginationModule&#45;&gt;AppModule</title>
<path fill="none" stroke="black" d="M1762.83,-198.14C1762.83,-236.23 1762.83,-321 1762.83,-321 1762.83,-321 1530.88,-321 1530.88,-321"/>
<polygon fill="black" stroke="black" points="1530.88,-317.5 1520.88,-321 1530.88,-324.5 1530.88,-317.5"/>
</g>
<!-- PaginationProvider  -->
<g id="node19" class="node">
<title>PaginationProvider </title>
<polygon fill="#fb8072" stroke="black" points="2522.59,-274 2395.41,-274 2395.41,-238 2522.59,-238 2522.59,-274"/>
<text text-anchor="middle" x="2459" y="-251.8" font-family="Times,serif" font-size="14.00">PaginationProvider </text>
</g>
<!-- PaginationModule&#45;&gt;PaginationProvider  -->
<g id="edge18" class="edge">
<title>PaginationModule&#45;&gt;PaginationProvider </title>
<path fill="none" stroke="black" stroke-dasharray="5,2" d="M1691.17,-198.17C1691.17,-202.05 1691.17,-205 1691.17,-205 1691.17,-205 2412.67,-205 2412.67,-205 2412.67,-205 2412.67,-227.88 2412.67,-227.88"/>
<polygon fill="black" stroke="black" points="2409.17,-227.88 2412.67,-237.88 2416.17,-227.88 2409.17,-227.88"/>
</g>
<!-- PostsModule&#45;&gt;AppModule -->
<g id="edge4" class="edge">
<title>PostsModule&#45;&gt;AppModule</title>
<path fill="none" stroke="black" d="M1419.8,-267C1442.87,-267 1466.21,-267 1466.21,-267 1466.21,-267 1466.21,-292.72 1466.21,-292.72"/>
<polygon fill="black" stroke="black" points="1462.71,-292.72 1466.21,-302.72 1469.71,-292.72 1462.71,-292.72"/>
</g>
<!-- PostsService  -->
<g id="node21" class="node">
<title>PostsService </title>
<polygon fill="#fb8072" stroke="black" points="1045.54,-198 954.46,-198 954.46,-162 1045.54,-162 1045.54,-198"/>
<text text-anchor="middle" x="1000" y="-175.8" font-family="Times,serif" font-size="14.00">PostsService </text>
</g>
<!-- PostsModule&#45;&gt;PostsService  -->
<g id="edge23" class="edge">
<title>PostsModule&#45;&gt;PostsService </title>
<path fill="none" stroke="black" stroke-dasharray="5,2" d="M1330.44,-256C1282.15,-256 1211.92,-256 1211.92,-256 1211.92,-256 1211.92,-186 1211.92,-186 1211.92,-186 1055.72,-186 1055.72,-186"/>
<polygon fill="black" stroke="black" points="1055.72,-182.5 1045.72,-186 1055.72,-189.5 1055.72,-182.5"/>
</g>
<!-- TagsModule -->
<g id="node5" class="node">
<title>TagsModule</title>
<polygon fill="#8dd3c7" stroke="black" points="1891.26,-198 1888.26,-202 1867.26,-202 1864.26,-198 1804.74,-198 1804.74,-162 1891.26,-162 1891.26,-198"/>
<text text-anchor="middle" x="1848" y="-175.8" font-family="Times,serif" font-size="14.00">TagsModule</text>
</g>
<!-- TagsModule&#45;&gt;PostsModule -->
<g id="edge21" class="edge">
<title>TagsModule&#45;&gt;PostsModule</title>
<path fill="none" stroke="black" d="M1833.54,-198.15C1833.54,-221.76 1833.54,-260 1833.54,-260 1833.54,-260 1429.8,-260 1429.8,-260"/>
<polygon fill="black" stroke="black" points="1429.8,-256.5 1419.8,-260 1429.8,-263.5 1429.8,-256.5"/>
</g>
<!-- TagsModule&#45;&gt;AppModule -->
<g id="edge5" class="edge">
<title>TagsModule&#45;&gt;AppModule</title>
<path fill="none" stroke="black" d="M1862.46,-198.09C1862.46,-237.99 1862.46,-330 1862.46,-330 1862.46,-330 1530.77,-330 1530.77,-330"/>
<polygon fill="black" stroke="black" points="1530.77,-326.5 1520.77,-330 1530.77,-333.5 1530.77,-326.5"/>
</g>
<!-- TagsService  -->
<g id="node24" class="node">
<title>TagsService </title>
<polygon fill="#fb8072" stroke="black" points="2793.19,-274 2704.81,-274 2704.81,-238 2793.19,-238 2793.19,-274"/>
<text text-anchor="middle" x="2749" y="-251.8" font-family="Times,serif" font-size="14.00">TagsService </text>
</g>
<!-- TagsModule&#45;&gt;TagsService  -->
<g id="edge26" class="edge">
<title>TagsModule&#45;&gt;TagsService </title>
<path fill="none" stroke="black" stroke-dasharray="5,2" d="M1891.38,-174C2071.04,-174 2747.4,-174 2747.4,-174 2747.4,-174 2747.4,-227.8 2747.4,-227.8"/>
<polygon fill="black" stroke="black" points="2743.9,-227.8 2747.4,-237.8 2750.9,-227.8 2743.9,-227.8"/>
</g>
<!-- UploadsModule -->
<g id="node6" class="node">
<title>UploadsModule</title>
<polygon fill="#8dd3c7" stroke="black" points="1545.21,-198 1542.21,-202 1521.21,-202 1518.21,-198 1438.79,-198 1438.79,-162 1545.21,-162 1545.21,-198"/>
<text text-anchor="middle" x="1492" y="-175.8" font-family="Times,serif" font-size="14.00">UploadsModule</text>
</g>
<!-- UploadsModule&#45;&gt;AppModule -->
<g id="edge6" class="edge">
<title>UploadsModule&#45;&gt;AppModule</title>
<path fill="none" stroke="black" d="M1493.52,-198.14C1493.52,-198.14 1493.52,-292.93 1493.52,-292.93"/>
<polygon fill="black" stroke="black" points="1490.02,-292.92 1493.52,-302.93 1497.02,-292.93 1490.02,-292.92"/>
</g>
<!-- UsersModule -->
<g id="node7" class="node">
<title>UsersModule</title>
<polygon fill="#8dd3c7" stroke="black" points="1420.92,-198 1417.92,-202 1396.92,-202 1393.92,-198 1329.08,-198 1329.08,-162 1420.92,-162 1420.92,-198"/>
<text text-anchor="middle" x="1375" y="-175.8" font-family="Times,serif" font-size="14.00">UsersModule</text>
</g>
<!-- UsersModule&#45;&gt;PostsModule -->
<g id="edge22" class="edge">
<title>UsersModule&#45;&gt;PostsModule</title>
<path fill="none" stroke="black" d="M1397.28,-198.01C1397.28,-198.01 1397.28,-227.85 1397.28,-227.85"/>
<polygon fill="black" stroke="black" points="1393.78,-227.85 1397.28,-237.85 1400.78,-227.85 1393.78,-227.85"/>
</g>
<!-- UsersModule&#45;&gt;AppModule -->
<g id="edge7" class="edge">
<title>UsersModule&#45;&gt;AppModule</title>
<path fill="none" stroke="black" d="M1420.9,-180C1425.69,-180 1428.84,-180 1428.84,-180 1428.84,-180 1428.84,-312 1428.84,-312 1428.84,-312 1429.67,-312 1429.67,-312"/>
<polygon fill="black" stroke="black" points="1427.13,-315.5 1437.13,-312 1427.13,-308.5 1427.13,-315.5"/>
</g>
<!-- UsersService  -->
<g id="node28" class="node">
<title>UsersService </title>
<polygon fill="#fb8072" stroke="black" points="2547.85,-122 2454.15,-122 2454.15,-86 2547.85,-86 2547.85,-122"/>
<text text-anchor="middle" x="2501" y="-99.8" font-family="Times,serif" font-size="14.00">UsersService </text>
</g>
<!-- UsersModule&#45;&gt;UsersService  -->
<g id="edge30" class="edge">
<title>UsersModule&#45;&gt;UsersService </title>
<path fill="none" stroke="black" stroke-dasharray="5,2" d="M1355.41,-161.84C1355.41,-156.96 1355.41,-153 1355.41,-153 1355.41,-153 2488.56,-153 2488.56,-153 2488.56,-153 2488.56,-132.25 2488.56,-132.25"/>
<polygon fill="black" stroke="black" points="2492.06,-132.25 2488.56,-122.25 2485.06,-132.25 2492.06,-132.25"/>
</g>
<!-- AppService -->
<g id="node9" class="node">
<title>AppService</title>
<ellipse fill="#fdb462" stroke="black" cx="1143" cy="-256" rx="56.74" ry="18"/>
<text text-anchor="middle" x="1143" y="-251.8" font-family="Times,serif" font-size="14.00">AppService</text>
</g>
<!-- AppService&#45;&gt;AppModule -->
<g id="edge8" class="edge">
<title>AppService&#45;&gt;AppModule</title>
<path fill="none" stroke="black" d="M1143,-274.29C1143,-296.21 1143,-330 1143,-330 1143,-330 1427.12,-330 1427.12,-330"/>
<polygon fill="black" stroke="black" points="1427.12,-333.5 1437.12,-330 1427.12,-326.5 1427.12,-333.5"/>
</g>
<!-- AuthService -->
<g id="node12" class="node">
<title>AuthService</title>
<ellipse fill="#fdb462" stroke="black" cx="968" cy="-104" rx="59.11" ry="18"/>
<text text-anchor="middle" x="968" y="-99.8" font-family="Times,serif" font-size="14.00">AuthService</text>
</g>
<!-- AuthService&#45;&gt;AuthModule -->
<g id="edge11" class="edge">
<title>AuthService&#45;&gt;AuthModule</title>
<path fill="none" stroke="black" d="M990.89,-120.9C990.89,-123.85 990.89,-126 990.89,-126 990.89,-126 1259.2,-126 1259.2,-126 1259.2,-126 1259.2,-151.72 1259.2,-151.72"/>
<polygon fill="black" stroke="black" points="1255.7,-151.72 1259.2,-161.72 1262.7,-151.72 1255.7,-151.72"/>
</g>
<!-- GenerateTokensProvider -->
<g id="node13" class="node">
<title>GenerateTokensProvider</title>
<ellipse fill="#fdb462" stroke="black" cx="783" cy="-104" rx="107.63" ry="18"/>
<text text-anchor="middle" x="783" y="-99.8" font-family="Times,serif" font-size="14.00">GenerateTokensProvider</text>
</g>
<!-- GenerateTokensProvider&#45;&gt;AuthModule -->
<g id="edge12" class="edge">
<title>GenerateTokensProvider&#45;&gt;AuthModule</title>
<path fill="none" stroke="black" d="M850.09,-118.25C850.09,-123.87 850.09,-129 850.09,-129 850.09,-129 1252.2,-129 1252.2,-129 1252.2,-129 1252.2,-151.88 1252.2,-151.88"/>
<polygon fill="black" stroke="black" points="1248.7,-151.88 1252.2,-161.88 1255.7,-151.88 1248.7,-151.88"/>
</g>
<!-- GoogleAuthenticationService -->
<g id="node14" class="node">
<title>GoogleAuthenticationService</title>
<ellipse fill="#fdb462" stroke="black" cx="532" cy="-104" rx="125.62" ry="18"/>
<text text-anchor="middle" x="532" y="-99.8" font-family="Times,serif" font-size="14.00">GoogleAuthenticationService</text>
</g>
<!-- GoogleAuthenticationService&#45;&gt;AuthModule -->
<g id="edge13" class="edge">
<title>GoogleAuthenticationService&#45;&gt;AuthModule</title>
<path fill="none" stroke="black" d="M638.34,-113.79C638.34,-121.87 638.34,-132 638.34,-132 638.34,-132 1245.21,-132 1245.21,-132 1245.21,-132 1245.21,-151.85 1245.21,-151.85"/>
<polygon fill="black" stroke="black" points="1241.71,-151.85 1245.21,-161.85 1248.71,-151.85 1241.71,-151.85"/>
</g>
<!-- RefreshTokensProvider -->
<g id="node15" class="node">
<title>RefreshTokensProvider</title>
<ellipse fill="#fdb462" stroke="black" cx="285" cy="-104" rx="102.99" ry="18"/>
<text text-anchor="middle" x="285" y="-99.8" font-family="Times,serif" font-size="14.00">RefreshTokensProvider</text>
</g>
<!-- RefreshTokensProvider&#45;&gt;AuthModule -->
<g id="edge14" class="edge">
<title>RefreshTokensProvider&#45;&gt;AuthModule</title>
<path fill="none" stroke="black" d="M285,-122.03C285,-128.85 285,-135 285,-135 285,-135 1238.21,-135 1238.21,-135 1238.21,-135 1238.21,-151.96 1238.21,-151.96"/>
<polygon fill="black" stroke="black" points="1234.71,-151.96 1238.21,-161.96 1241.71,-151.96 1234.71,-151.96"/>
</g>
<!-- SignInProvider -->
<g id="node16" class="node">
<title>SignInProvider</title>
<ellipse fill="#fdb462" stroke="black" cx="94" cy="-104" rx="70.08" ry="18"/>
<text text-anchor="middle" x="94" y="-99.8" font-family="Times,serif" font-size="14.00">SignInProvider</text>
</g>
<!-- SignInProvider&#45;&gt;AuthModule -->
<g id="edge15" class="edge">
<title>SignInProvider&#45;&gt;AuthModule</title>
<path fill="none" stroke="black" d="M94,-122.19C94,-130.28 94,-138 94,-138 94,-138 1231.22,-138 1231.22,-138 1231.22,-138 1231.22,-151.94 1231.22,-151.94"/>
<polygon fill="black" stroke="black" points="1227.72,-151.94 1231.22,-161.94 1234.72,-151.94 1227.72,-151.94"/>
</g>
<!-- MailService -->
<g id="node18" class="node">
<title>MailService</title>
<ellipse fill="#fdb462" stroke="black" cx="1989" cy="-256" rx="58.46" ry="18"/>
<text text-anchor="middle" x="1989" y="-251.8" font-family="Times,serif" font-size="14.00">MailService</text>
</g>
<!-- MailService&#45;&gt;MailModule -->
<g id="edge17" class="edge">
<title>MailService&#45;&gt;MailModule</title>
<path fill="none" stroke="black" d="M1940.25,-246C1841.57,-246 1627.5,-246 1627.5,-246 1627.5,-246 1627.5,-208.03 1627.5,-208.03"/>
<polygon fill="black" stroke="black" points="1631,-208.03 1627.5,-198.03 1624,-208.03 1631,-208.03"/>
</g>
<!-- PaginationProvider -->
<g id="node20" class="node">
<title>PaginationProvider</title>
<ellipse fill="#fdb462" stroke="black" cx="2285" cy="-256" rx="85.69" ry="18"/>
<text text-anchor="middle" x="2285" y="-251.8" font-family="Times,serif" font-size="14.00">PaginationProvider</text>
</g>
<!-- PaginationProvider&#45;&gt;PaginationModule -->
<g id="edge19" class="edge">
<title>PaginationProvider&#45;&gt;PaginationModule</title>
<path fill="none" stroke="black" d="M2313.53,-238.86C2313.53,-226.51 2313.53,-212 2313.53,-212 2313.53,-212 1715.06,-212 1715.06,-212 1715.06,-212 1715.06,-208.24 1715.06,-208.24"/>
<polygon fill="black" stroke="black" points="1718.56,-208.24 1715.06,-198.24 1711.56,-208.24 1718.56,-208.24"/>
</g>
<!-- CreatePostProvider -->
<g id="node22" class="node">
<title>CreatePostProvider</title>
<ellipse fill="#fdb462" stroke="black" cx="705" cy="-180" rx="86.25" ry="18"/>
<text text-anchor="middle" x="705" y="-175.8" font-family="Times,serif" font-size="14.00">CreatePostProvider</text>
</g>
<!-- CreatePostProvider&#45;&gt;PostsModule -->
<g id="edge24" class="edge">
<title>CreatePostProvider&#45;&gt;PostsModule</title>
<path fill="none" stroke="black" d="M705,-198.19C705,-213.18 705,-232 705,-232 705,-232 1352.72,-232 1352.72,-232 1352.72,-232 1352.72,-232.58 1352.72,-232.58"/>
<polygon fill="black" stroke="black" points="1349.22,-227.81 1352.72,-237.81 1356.22,-227.81 1349.22,-227.81"/>
</g>
<!-- PostsService -->
<g id="node23" class="node">
<title>PostsService</title>
<ellipse fill="#fdb462" stroke="black" cx="870" cy="-180" rx="60.27" ry="18"/>
<text text-anchor="middle" x="870" y="-175.8" font-family="Times,serif" font-size="14.00">PostsService</text>
</g>
<!-- PostsService&#45;&gt;PostsModule -->
<g id="edge25" class="edge">
<title>PostsService&#45;&gt;PostsModule</title>
<path fill="none" stroke="black" d="M870,-198.04C870,-210.56 870,-225 870,-225 870,-225 1375,-225 1375,-225 1375,-225 1375,-227.97 1375,-227.97"/>
<polygon fill="black" stroke="black" points="1371.5,-227.97 1375,-237.97 1378.5,-227.97 1371.5,-227.97"/>
</g>
<!-- TagsService -->
<g id="node25" class="node">
<title>TagsService</title>
<ellipse fill="#fdb462" stroke="black" cx="2622" cy="-256" rx="58.53" ry="18"/>
<text text-anchor="middle" x="2622" y="-251.8" font-family="Times,serif" font-size="14.00">TagsService</text>
</g>
<!-- TagsService&#45;&gt;TagsModule -->
<g id="edge27" class="edge">
<title>TagsService&#45;&gt;TagsModule</title>
<path fill="none" stroke="black" d="M2575.55,-244.75C2575.55,-224.97 2575.55,-186 2575.55,-186 2575.55,-186 1901.33,-186 1901.33,-186"/>
<polygon fill="black" stroke="black" points="1901.33,-182.5 1891.33,-186 1901.33,-189.5 1901.33,-182.5"/>
</g>
<!-- UploadToAwsProvider -->
<g id="node26" class="node">
<title>UploadToAwsProvider</title>
<ellipse fill="#fdb462" stroke="black" cx="2689" cy="-104" rx="101.29" ry="18"/>
<text text-anchor="middle" x="2689" y="-99.8" font-family="Times,serif" font-size="14.00">UploadToAwsProvider</text>
</g>
<!-- UploadToAwsProvider&#45;&gt;UploadsModule -->
<g id="edge28" class="edge">
<title>UploadToAwsProvider&#45;&gt;UploadsModule</title>
<path fill="none" stroke="black" d="M2634.31,-119.32C2634.31,-134.66 2634.31,-156 2634.31,-156 2634.31,-156 1500.23,-156 1500.23,-156 1500.23,-156 1500.23,-156.58 1500.23,-156.58"/>
<polygon fill="black" stroke="black" points="1496.73,-151.81 1500.23,-161.81 1503.73,-151.81 1496.73,-151.81"/>
</g>
<!-- UploadsService -->
<g id="node27" class="node">
<title>UploadsService</title>
<ellipse fill="#fdb462" stroke="black" cx="2880" cy="-104" rx="72.35" ry="18"/>
<text text-anchor="middle" x="2880" y="-99.8" font-family="Times,serif" font-size="14.00">UploadsService</text>
</g>
<!-- UploadsService&#45;&gt;UploadsModule -->
<g id="edge29" class="edge">
<title>UploadsService&#45;&gt;UploadsModule</title>
<path fill="none" stroke="black" d="M2880,-122.01C2880,-138.05 2880,-159 2880,-159 2880,-159 1522.67,-159 1522.67,-159 1522.67,-159 1522.67,-159.29 1522.67,-159.29"/>
<polygon fill="black" stroke="black" points="1519.17,-151.92 1522.67,-161.92 1526.17,-151.92 1519.17,-151.92"/>
</g>
<!-- CreateGoogleUserProvider -->
<g id="node29" class="node">
<title>CreateGoogleUserProvider</title>
<ellipse fill="#fdb462" stroke="black" cx="2314" cy="-104" rx="116.29" ry="18"/>
<text text-anchor="middle" x="2314" y="-99.8" font-family="Times,serif" font-size="14.00">CreateGoogleUserProvider</text>
</g>
<!-- CreateGoogleUserProvider&#45;&gt;UsersModule -->
<g id="edge31" class="edge">
<title>CreateGoogleUserProvider&#45;&gt;UsersModule</title>
<path fill="none" stroke="black" d="M2256.47,-119.83C2256.47,-133.14 2256.47,-150 2256.47,-150 2256.47,-150 1407.65,-150 1407.65,-150 1407.65,-150 1407.65,-151.86 1407.65,-151.86"/>
<polygon fill="black" stroke="black" points="1404.15,-151.86 1407.65,-161.86 1411.15,-151.86 1404.15,-151.86"/>
</g>
<!-- CreateUserProvider -->
<g id="node30" class="node">
<title>CreateUserProvider</title>
<ellipse fill="#fdb462" stroke="black" cx="2092" cy="-104" rx="87.94" ry="18"/>
<text text-anchor="middle" x="2092" y="-99.8" font-family="Times,serif" font-size="14.00">CreateUserProvider</text>
</g>
<!-- CreateUserProvider&#45;&gt;UsersModule -->
<g id="edge32" class="edge">
<title>CreateUserProvider&#45;&gt;UsersModule</title>
<path fill="none" stroke="black" d="M2025.76,-116.21C2025.76,-128.92 2025.76,-147 2025.76,-147 2025.76,-147 1394.59,-147 1394.59,-147 1394.59,-147 1394.59,-151.96 1394.59,-151.96"/>
<polygon fill="black" stroke="black" points="1391.09,-151.96 1394.59,-161.96 1398.09,-151.96 1391.09,-151.96"/>
</g>
<!-- FindOneByGoogleIdProvider -->
<g id="node31" class="node">
<title>FindOneByGoogleIdProvider</title>
<ellipse fill="#fdb462" stroke="black" cx="1860" cy="-104" rx="125.65" ry="18"/>
<text text-anchor="middle" x="1860" y="-99.8" font-family="Times,serif" font-size="14.00">FindOneByGoogleIdProvider</text>
</g>
<!-- FindOneByGoogleIdProvider&#45;&gt;UsersModule -->
<g id="edge33" class="edge">
<title>FindOneByGoogleIdProvider&#45;&gt;UsersModule</title>
<path fill="none" stroke="black" d="M1760.45,-115.36C1760.45,-127.18 1760.45,-144 1760.45,-144 1760.45,-144 1381.53,-144 1381.53,-144 1381.53,-144 1381.53,-151.58 1381.53,-151.58"/>
<polygon fill="black" stroke="black" points="1378.03,-151.58 1381.53,-161.58 1385.03,-151.58 1378.03,-151.58"/>
</g>
<!-- FindOneUserByEmailProvider -->
<g id="node32" class="node">
<title>FindOneUserByEmailProvider</title>
<ellipse fill="#fdb462" stroke="black" cx="1586" cy="-104" rx="130.8" ry="18"/>
<text text-anchor="middle" x="1586" y="-99.8" font-family="Times,serif" font-size="14.00">FindOneUserByEmailProvider</text>
</g>
<!-- FindOneUserByEmailProvider&#45;&gt;UsersModule -->
<g id="edge34" class="edge">
<title>FindOneUserByEmailProvider&#45;&gt;UsersModule</title>
<path fill="none" stroke="black" d="M1477.79,-114.11C1477.79,-125.07 1477.79,-141 1477.79,-141 1477.79,-141 1368.47,-141 1368.47,-141 1368.47,-141 1368.47,-151.87 1368.47,-151.87"/>
<polygon fill="black" stroke="black" points="1364.97,-151.87 1368.47,-161.87 1371.97,-151.87 1364.97,-151.87"/>
</g>
<!-- UsersService -->
<g id="node33" class="node">
<title>UsersService</title>
<ellipse fill="#fdb462" stroke="black" cx="1375" cy="-104" rx="61.95" ry="18"/>
<text text-anchor="middle" x="1375" y="-99.8" font-family="Times,serif" font-size="14.00">UsersService</text>
</g>
<!-- UsersService&#45;&gt;UsersModule -->
<g id="edge35" class="edge">
<title>UsersService&#45;&gt;UsersModule</title>
<path fill="none" stroke="black" d="M1342.35,-119.38C1342.35,-119.38 1342.35,-151.97 1342.35,-151.97"/>
<polygon fill="black" stroke="black" points="1338.85,-151.97 1342.35,-161.97 1345.85,-151.97 1338.85,-151.97"/>
</g>
</g>
</svg>
